<?xml version="1.0" encoding="utf-8"?>
<!-- Generator: Adobe Illustrator 18.1.1, SVG Export Plug-In . SVG Version: 6.00 Build 0)  -->
<svg version="1.1" id="Layer_1" xmlns="http://www.w3.org/2000/svg" xmlns:xlink="http://www.w3.org/1999/xlink" x="0px" y="0px"
	 width="13.9px" height="12.9px" viewBox="-392 294.1 13.9 12.9" enable-background="new -392 294.1 13.9 12.9"
	 xml:space="preserve">
<g>
	<path fill="#FFFFFF" d="M-386.7,304.7c-2.9,0-5.3-2.4-5.3-5.3c0-2.9,2.4-5.3,5.3-5.3c2.9,0,5.3,2.4,5.3,5.3
		C-381.4,302.3-383.8,304.7-386.7,304.7z M-386.7,296.1c-1.8,0-3.3,1.5-3.3,3.3c0,1.8,1.5,3.3,3.3,3.3c1.8,0,3.3-1.5,3.3-3.3
		C-383.4,297.6-384.9,296.1-386.7,296.1z"/>
	<path fill="#FFFFFF" d="M-379.1,307c-0.2,0-0.5-0.1-0.7-0.2l-4.3-3.7c-0.4-0.4-0.4-1-0.1-1.4c0.4-0.4,1-0.5,1.4-0.1l4.3,3.7
		c0.4,0.4,0.5,1,0.1,1.4C-378.6,306.9-378.9,307-379.1,307z"/>
</g>
</svg>
